<mxfile host="app.diagrams.net" agent="Mozilla/5.0 (Windows NT 10.0; Win64; x64) AppleWebKit/537.36 (KHTML, like Gecko) Chrome/126.0.0.0 Safari/537.36 Edg/126.0.0.0" border="50" scale="3" compressed="false" locked="false" version="24.7.5">
  <diagram name="Blank" id="YmL12bMKpDGza6XwsDPr">
    <mxGraphModel dx="1059" dy="771" grid="0" gridSize="10" guides="1" tooltips="1" connect="1" arrows="1" fold="1" page="0" pageScale="1" pageWidth="827" pageHeight="1169" background="none" math="1" shadow="0">
      <root>
        <mxCell id="X5NqExCQtvZxIxQ7pmgY-0" />
        <mxCell id="1" parent="X5NqExCQtvZxIxQ7pmgY-0" />
        <mxCell id="ypJDKsy0dtAMijzLyRpw-3" value="" style="edgeStyle=orthogonalEdgeStyle;rounded=0;orthogonalLoop=1;jettySize=auto;html=1;fontFamily=Ma Shan Zheng;fontSource=https%3A%2F%2Ffonts.googleapis.com%2Fcss%3Ffamily%3DMa%2BShan%2BZheng;" edge="1" parent="1" source="ypJDKsy0dtAMijzLyRpw-1" target="ypJDKsy0dtAMijzLyRpw-2">
          <mxGeometry relative="1" as="geometry" />
        </mxCell>
        <mxCell id="ypJDKsy0dtAMijzLyRpw-1" value="&lt;font style=&quot;font-size: 19px;&quot;&gt;内存虚拟化&lt;/font&gt;" style="ellipse;whiteSpace=wrap;html=1;fontSize=23;fontFamily=Ma Shan Zheng;fontSource=https%3A%2F%2Ffonts.googleapis.com%2Fcss%3Ffamily%3DMa%2BShan%2BZheng;" vertex="1" parent="1">
          <mxGeometry x="-205" y="-218" width="120" height="80" as="geometry" />
        </mxCell>
        <mxCell id="ypJDKsy0dtAMijzLyRpw-5" value="" style="edgeStyle=orthogonalEdgeStyle;rounded=0;orthogonalLoop=1;jettySize=auto;html=1;fontFamily=Ma Shan Zheng;fontSource=https%3A%2F%2Ffonts.googleapis.com%2Fcss%3Ffamily%3DMa%2BShan%2BZheng;" edge="1" parent="1" source="ypJDKsy0dtAMijzLyRpw-2" target="ypJDKsy0dtAMijzLyRpw-4">
          <mxGeometry relative="1" as="geometry" />
        </mxCell>
        <mxCell id="ypJDKsy0dtAMijzLyRpw-2" value="ch21 超越物理内存：机制" style="ellipse;whiteSpace=wrap;html=1;fontFamily=Ma Shan Zheng;fontSource=https%3A%2F%2Ffonts.googleapis.com%2Fcss%3Ffamily%3DMa%2BShan%2BZheng;" vertex="1" parent="1">
          <mxGeometry x="-5" y="-218" width="120" height="80" as="geometry" />
        </mxCell>
        <mxCell id="ypJDKsy0dtAMijzLyRpw-7" value="" style="edgeStyle=orthogonalEdgeStyle;rounded=0;orthogonalLoop=1;jettySize=auto;html=1;fontFamily=Ma Shan Zheng;fontSource=https%3A%2F%2Ffonts.googleapis.com%2Fcss%3Ffamily%3DMa%2BShan%2BZheng;" edge="1" parent="1" source="ypJDKsy0dtAMijzLyRpw-4" target="ypJDKsy0dtAMijzLyRpw-6">
          <mxGeometry relative="1" as="geometry" />
        </mxCell>
        <mxCell id="ypJDKsy0dtAMijzLyRpw-4" value="用户需要超大的虚拟内存空间" style="whiteSpace=wrap;html=1;fontFamily=Ma Shan Zheng;fontSource=https%3A%2F%2Ffonts.googleapis.com%2Fcss%3Ffamily%3DMa%2BShan%2BZheng;" vertex="1" parent="1">
          <mxGeometry x="-5" y="-48" width="120" height="60" as="geometry" />
        </mxCell>
        <mxCell id="ypJDKsy0dtAMijzLyRpw-9" value="" style="edgeStyle=orthogonalEdgeStyle;rounded=0;orthogonalLoop=1;jettySize=auto;html=1;fontFamily=Ma Shan Zheng;fontSource=https%3A%2F%2Ffonts.googleapis.com%2Fcss%3Ffamily%3DMa%2BShan%2BZheng;" edge="1" parent="1" source="ypJDKsy0dtAMijzLyRpw-6" target="ypJDKsy0dtAMijzLyRpw-8">
          <mxGeometry relative="1" as="geometry" />
        </mxCell>
        <mxCell id="ypJDKsy0dtAMijzLyRpw-6" value="将不活跃的空间放入较慢的存储（硬盘），交换空间诞生了" style="whiteSpace=wrap;html=1;fontFamily=Ma Shan Zheng;fontSource=https%3A%2F%2Ffonts.googleapis.com%2Fcss%3Ffamily%3DMa%2BShan%2BZheng;" vertex="1" parent="1">
          <mxGeometry x="-5" y="115" width="120" height="60" as="geometry" />
        </mxCell>
        <mxCell id="ypJDKsy0dtAMijzLyRpw-11" value="" style="edgeStyle=orthogonalEdgeStyle;rounded=0;orthogonalLoop=1;jettySize=auto;html=1;fontFamily=Ma Shan Zheng;fontSource=https%3A%2F%2Ffonts.googleapis.com%2Fcss%3Ffamily%3DMa%2BShan%2BZheng;" edge="1" parent="1" source="ypJDKsy0dtAMijzLyRpw-8" target="ypJDKsy0dtAMijzLyRpw-10">
          <mxGeometry relative="1" as="geometry" />
        </mxCell>
        <mxCell id="ypJDKsy0dtAMijzLyRpw-8" value="如何从交换空间中交换页" style="whiteSpace=wrap;html=1;fontFamily=Ma Shan Zheng;fontSource=https%3A%2F%2Ffonts.googleapis.com%2Fcss%3Ffamily%3DMa%2BShan%2BZheng;" vertex="1" parent="1">
          <mxGeometry x="-219" y="115" width="120" height="60" as="geometry" />
        </mxCell>
        <mxCell id="ypJDKsy0dtAMijzLyRpw-13" value="" style="edgeStyle=orthogonalEdgeStyle;rounded=0;orthogonalLoop=1;jettySize=auto;html=1;fontFamily=Ma Shan Zheng;fontSource=https%3A%2F%2Ffonts.googleapis.com%2Fcss%3Ffamily%3DMa%2BShan%2BZheng;" edge="1" parent="1" source="ypJDKsy0dtAMijzLyRpw-10" target="ypJDKsy0dtAMijzLyRpw-12">
          <mxGeometry relative="1" as="geometry" />
        </mxCell>
        <mxCell id="ypJDKsy0dtAMijzLyRpw-10" value="页表项中的存在位可以判断对应页当前是否在内存中" style="whiteSpace=wrap;html=1;fontFamily=Ma Shan Zheng;fontSource=https%3A%2F%2Ffonts.googleapis.com%2Fcss%3Ffamily%3DMa%2BShan%2BZheng;" vertex="1" parent="1">
          <mxGeometry x="-379" y="115" width="120" height="60" as="geometry" />
        </mxCell>
        <mxCell id="ypJDKsy0dtAMijzLyRpw-15" value="" style="edgeStyle=orthogonalEdgeStyle;rounded=0;orthogonalLoop=1;jettySize=auto;html=1;fontFamily=Ma Shan Zheng;fontSource=https%3A%2F%2Ffonts.googleapis.com%2Fcss%3Ffamily%3DMa%2BShan%2BZheng;" edge="1" parent="1" source="ypJDKsy0dtAMijzLyRpw-12" target="ypJDKsy0dtAMijzLyRpw-14">
          <mxGeometry relative="1" as="geometry" />
        </mxCell>
        <mxCell id="ypJDKsy0dtAMijzLyRpw-12" value="存在位为零：页错误" style="whiteSpace=wrap;html=1;fontFamily=Ma Shan Zheng;fontSource=https%3A%2F%2Ffonts.googleapis.com%2Fcss%3Ffamily%3DMa%2BShan%2BZheng;" vertex="1" parent="1">
          <mxGeometry x="-379" y="-40" width="120" height="60" as="geometry" />
        </mxCell>
        <mxCell id="ypJDKsy0dtAMijzLyRpw-14" value="操作系统从硬盘中将页交换回来（查询，读取，重新进行内存引用）" style="whiteSpace=wrap;html=1;fontFamily=Ma Shan Zheng;fontSource=https%3A%2F%2Ffonts.googleapis.com%2Fcss%3Ffamily%3DMa%2BShan%2BZheng;" vertex="1" parent="1">
          <mxGeometry x="-379" y="-175" width="120" height="60" as="geometry" />
        </mxCell>
        <mxCell id="ypJDKsy0dtAMijzLyRpw-38" value="" style="group;fontFamily=Ma Shan Zheng;fontSource=https%3A%2F%2Ffonts.googleapis.com%2Fcss%3Ffamily%3DMa%2BShan%2BZheng;" vertex="1" connectable="0" parent="1">
          <mxGeometry x="276" y="-206" width="414" height="411" as="geometry" />
        </mxCell>
        <mxCell id="ypJDKsy0dtAMijzLyRpw-26" value="&lt;b&gt;&lt;font style=&quot;font-size: 17px;&quot;&gt;操作系统守护进程运行状态机&lt;/font&gt;&lt;/b&gt;" style="text;html=1;align=center;verticalAlign=middle;resizable=0;points=[];autosize=1;strokeColor=none;fillColor=none;fontFamily=Ma Shan Zheng;fontSource=https%3A%2F%2Ffonts.googleapis.com%2Fcss%3Ffamily%3DMa%2BShan%2BZheng;" vertex="1" parent="ypJDKsy0dtAMijzLyRpw-38">
          <mxGeometry x="55" width="239" height="32" as="geometry" />
        </mxCell>
        <mxCell id="ypJDKsy0dtAMijzLyRpw-37" value="" style="group;fontFamily=Ma Shan Zheng;fontSource=https%3A%2F%2Ffonts.googleapis.com%2Fcss%3Ffamily%3DMa%2BShan%2BZheng;" vertex="1" connectable="0" parent="ypJDKsy0dtAMijzLyRpw-38">
          <mxGeometry y="38" width="414" height="373" as="geometry" />
        </mxCell>
        <mxCell id="ypJDKsy0dtAMijzLyRpw-35" value="&lt;ol&gt;&lt;li&gt;&lt;p style=&quot;background-color: initial; display: inline !important;&quot;&gt;&lt;strong&gt;检测状态&lt;/strong&gt;：&lt;/p&gt;&lt;/li&gt;&lt;/ol&gt;&lt;ul&gt;&lt;ul&gt;&lt;li&gt;&lt;span style=&quot;background-color: initial;&quot;&gt;条件：操作系统检测可用页数。&lt;/span&gt;&lt;/li&gt;&lt;li&gt;&lt;span style=&quot;background-color: initial;&quot;&gt;转移条件：可用页数 &amp;lt; 低水位线（LW）。&lt;/span&gt;&lt;/li&gt;&lt;li&gt;&lt;span style=&quot;background-color: initial;&quot;&gt;转移至：低水位线状态。&lt;/span&gt;&lt;/li&gt;&lt;/ul&gt;&lt;/ul&gt;&lt;ol&gt;&lt;li&gt;&lt;p&gt;&lt;strong&gt;低水位线状态&lt;/strong&gt;：&lt;/p&gt;&lt;ul&gt;&lt;li&gt;条件：可用页数 &amp;lt; 低水位线（LW）。&lt;/li&gt;&lt;li&gt;转移条件：触发交换守护进程。&lt;/li&gt;&lt;li&gt;转移至：释放内存状态。&lt;/li&gt;&lt;/ul&gt;&lt;/li&gt;&lt;li&gt;&lt;p&gt;&lt;strong&gt;释放内存状态&lt;/strong&gt;：&lt;/p&gt;&lt;ul&gt;&lt;li&gt;条件：交换守护进程释放内存页。&lt;/li&gt;&lt;li&gt;转移条件：可用页数 &amp;gt;= 高水位线（HW）。&lt;/li&gt;&lt;li&gt;转移至：高水位线状态。&lt;/li&gt;&lt;/ul&gt;&lt;/li&gt;&lt;li&gt;&lt;p&gt;&lt;strong&gt;高水位线状态&lt;/strong&gt;：&lt;/p&gt;&lt;ul&gt;&lt;li&gt;条件：可用页数 &amp;gt;= 高水位线（HW）。&lt;/li&gt;&lt;li&gt;转移条件：交换守护进程休眠。&lt;/li&gt;&lt;li&gt;转移至：检测状态&lt;/li&gt;&lt;/ul&gt;&lt;/li&gt;&lt;/ol&gt;" style="text;html=1;align=left;verticalAlign=middle;whiteSpace=wrap;rounded=0;fillColor=none;gradientColor=none;fontFamily=Ma Shan Zheng;fontSource=https%3A%2F%2Ffonts.googleapis.com%2Fcss%3Ffamily%3DMa%2BShan%2BZheng;" vertex="1" parent="ypJDKsy0dtAMijzLyRpw-37">
          <mxGeometry x="20.93793103448276" y="4.571078431372549" width="393.0620689655172" height="341.00245098039215" as="geometry" />
        </mxCell>
        <mxCell id="ypJDKsy0dtAMijzLyRpw-36" value="" style="rounded=1;whiteSpace=wrap;html=1;textOpacity=0;fillColor=none;fontFamily=Ma Shan Zheng;fontSource=https%3A%2F%2Ffonts.googleapis.com%2Fcss%3Ffamily%3DMa%2BShan%2BZheng;" vertex="1" parent="ypJDKsy0dtAMijzLyRpw-37">
          <mxGeometry width="402.5793103448276" height="373" as="geometry" />
        </mxCell>
        <mxCell id="ypJDKsy0dtAMijzLyRpw-41" value="" style="edgeStyle=orthogonalEdgeStyle;rounded=0;orthogonalLoop=1;jettySize=auto;html=1;fontFamily=Ma Shan Zheng;fontSource=https%3A%2F%2Ffonts.googleapis.com%2Fcss%3Ffamily%3DMa%2BShan%2BZheng;" edge="1" parent="1" source="ypJDKsy0dtAMijzLyRpw-39" target="ypJDKsy0dtAMijzLyRpw-40">
          <mxGeometry relative="1" as="geometry" />
        </mxCell>
        <mxCell id="ypJDKsy0dtAMijzLyRpw-39" value="&lt;span style=&quot;font-size: 18px;&quot;&gt;&lt;font data-font-src=&quot;https://fonts.googleapis.com/css?family=Ma+Shan+Zheng&quot; face=&quot;Ma Shan Zheng&quot;&gt;内存虚拟化&lt;/font&gt;&lt;/span&gt;" style="whiteSpace=wrap;html=1;fontFamily=Ma Shan Zheng;fontSource=https%3A%2F%2Ffonts.googleapis.com%2Fcss%3Ffamily%3DMa%2BShan%2BZheng;" vertex="1" parent="1">
          <mxGeometry x="-189" y="459" width="120" height="60" as="geometry" />
        </mxCell>
        <mxCell id="ypJDKsy0dtAMijzLyRpw-40" value="&lt;font data-font-src=&quot;https://fonts.googleapis.com/css?family=Ma+Shan+Zheng&quot; face=&quot;Ma Shan Zheng&quot;&gt;&lt;font style=&quot;&quot; data-font-src=&quot;https://fonts.googleapis.com/css?family=Ma+Shan+Zheng&quot;&gt;缓存管&lt;/font&gt;&lt;font style=&quot;&quot; data-font-src=&quot;https://fonts.googleapis.com/css?family=Noto+Serif+Simplified+Chinese&quot;&gt;理&lt;/font&gt;&lt;/font&gt;" style="rounded=1;whiteSpace=wrap;html=1;fontFamily=Ma Shan Zheng;fontSource=https%3A%2F%2Ffonts.googleapis.com%2Fcss%3Ffamily%3DMa%2BShan%2BZheng;" vertex="1" parent="1">
          <mxGeometry x="-184" y="599" width="110" height="55" as="geometry" />
        </mxCell>
      </root>
    </mxGraphModel>
  </diagram>
</mxfile>
